<svg class="level-one" width="910" height="427" viewBox="0 0 910 427" fill="none" xmlns="http://www.w3.org/2000/svg">
            <mask id="path-1-outside-1_226_9" maskUnits="userSpaceOnUse" x="32.1348" y="35.3708" width="878" height="392" fill="black">
                <rect class="maze-border" fill="white" x="32.1348" y="35.3708" width="878" height="392"/>
                <path fill-rule="evenodd" clip-rule="evenodd" d="M126.404 45.3708H42.1348V417H126.404H686.798H771.067V332.73V143.124H900V58.8539H771.067H686.798V143.124V332.73H126.404V45.3708Z"/>
            </mask>
            <path fill-rule="evenodd" clip-rule="evenodd" d="M126.404 45.3708H42.1348V417H126.404H686.798H771.067V332.73V143.124H900V58.8539H771.067H686.798V143.124V332.73H126.404V45.3708Z" fill="black"/>
            <path d="M42.1348 45.3708V35.3708H32.1348V45.3708H42.1348ZM126.404 45.3708H136.404V35.3708H126.404V45.3708ZM42.1348 417H32.1348V427H42.1348V417ZM771.067 417V427H781.067V417H771.067ZM771.067 143.124V133.124H761.067V143.124H771.067ZM900 143.124V153.124H910V143.124H900ZM900 58.8539H910V48.8539H900V58.8539ZM686.798 58.8539V48.8539H676.798V58.8539H686.798ZM686.798 332.73V342.73H696.798V332.73H686.798ZM126.404 332.73H116.404V342.73H126.404V332.73ZM42.1348 55.3708H126.404V35.3708H42.1348V55.3708ZM52.1348 417V45.3708H32.1348V417H52.1348ZM126.404 407H42.1348V427H126.404V407ZM686.798 407H126.404V427H686.798V407ZM771.067 407H686.798V427H771.067V407ZM761.067 332.73V417H781.067V332.73H761.067ZM761.067 143.124V332.73H781.067V143.124H761.067ZM900 133.124H771.067V153.124H900V133.124ZM890 58.8539V143.124H910V58.8539H890ZM771.067 68.8539H900V48.8539H771.067V68.8539ZM686.798 68.8539H771.067V48.8539H686.798V68.8539ZM696.798 143.124V58.8539H676.798V143.124H696.798ZM696.798 332.73V143.124H676.798V332.73H696.798ZM126.404 342.73H686.798V322.73H126.404V342.73ZM116.404 45.3708V332.73H136.404V45.3708H116.404Z" fill="#7C5CFF" mask="url(#path-1-outside-1_226_9)"/>
            <path class="finish" d="M832.584 58.8539H900V143.124H832.584V58.8539Z" fill="#28C91A"/>
            <rect y="0.707855" width="168.539" height="168.539" fill="#363636"/>
        </svg>